<?xml version="1.0" standalone="no"?><!DOCTYPE svg PUBLIC "-//W3C//DTD SVG 1.1//EN" "http://www.w3.org/Graphics/SVG/1.1/DTD/svg11.dtd"><svg t="1766855950604" class="icon" viewBox="0 0 1024 1024" version="1.1" xmlns="http://www.w3.org/2000/svg" p-id="4182" xmlns:xlink="http://www.w3.org/1999/xlink" width="200" height="200"><path d="M512 900c-249.24 0-452-174.04-452-388s202.76-388 452-388 452 174.04 452 388-202.76 388-452 388z m0-704c-209.52 0-380 141.76-380 316s170.48 316 380 316 380-141.76 380-316-170.48-316-380-316z" p-id="4183"></path><path d="M512 708c-108.08 0-196-87.92-196-196s87.92-196 196-196 196 87.92 196 196-87.92 196-196 196z m0-320c-68.36 0-124 55.64-124 124s55.64 124 124 124 124-55.64 124-124-55.64-124-124-124z" p-id="4184"></path><path d="M864 900c-9.2 0-18.44-3.52-25.44-10.56l-704-704c-14.04-14.04-14.04-36.84 0-50.92 14.04-14.04 36.84-14.04 50.92 0l704 704c14.04 14.04 14.04 36.84 0 50.92a35.864 35.864 0 0 1-25.44 10.56z" p-id="4185"></path></svg>